# xmcd
# Track frame offsets: 
#        180
#        10403
#        24906
#        48983
#        63667
#        87737
#        105467
#        120622
#        134254
#        143997
#        170736
#        188420
# Disc length: 3100 seconds
# Revision: 0
# Processed by: cddbd v1.4PL0 Copyright (c) Steve Scherf et al.
# Submitted via: ExactAudioCopy v0.90a9
#
DISCID=a30c1a0c
DTITLE=Nick Vigarino - Victims of Cool
DYEAR=1900
DGENRE=
TTITLE0=Barefoot Annie
TTITLE1=Victim Of Cool
TTITLE2=Blacktop Road
TTITLE3=32/20 Blues
TTITLE4=Daddy Rolls It Home
TTITLE5=Lie To You
TTITLE6=What I Need
TTITLE7=Who's Da Dawg
TTITLE8=Ramshackled
TTITLE9=Elbow Room
TTITLE10=Drivin' Me Away
TTITLE11=If It Wasn't For Love
EXTD=
EXTT0=
EXTT1=
EXTT2=
EXTT3=
EXTT4=
EXTT5=
EXTT6=
EXTT7=
EXTT8=
EXTT9=
EXTT10=
EXTT11=
PLAYORDER=
